<svg width="18" height="18" viewBox="0 0 18 18" fill="none" xmlns="http://www.w3.org/2000/svg">
<g clip-path="url(#clip0_602_929)">
<path d="M9.00746 4.41412C8.84917 4.41412 8.69261 4.42219 8.53836 4.43799C8.3841 4.45379 8.23198 4.47721 8.08246 4.50794C7.93293 4.53868 7.78606 4.57674 7.64213 4.62166L7.21967 4.77678L6.81746 4.97099L6.43791 5.20194L6.08327 5.4672L5.75602 5.76446L5.45847 6.09142L5.19292 6.44566L4.96169 6.82486L4.76736 7.22661C4.70894 7.36403 4.65698 7.50491 4.61201 7.64872C4.56703 7.79254 4.52897 7.93935 4.49818 8.08871C4.46738 8.23806 4.44397 8.39 4.42811 8.54414C4.41225 8.69828 4.4043 8.85467 4.4043 9.01279C4.4043 9.1709 4.41237 9.32729 4.42811 9.48143C4.44377 9.63435 4.46715 9.78637 4.49818 9.93693C4.52897 10.0869 4.56703 10.2331 4.61201 10.3769C4.65698 10.5207 4.70888 10.6615 4.76736 10.799L4.96169 11.2008L5.19292 11.5799L5.45847 11.9342L5.75602 12.2612L6.08327 12.5584L6.43791 12.8237L6.81746 13.0546L7.21967 13.2489L7.64213 13.404L8.08246 13.5177C8.23315 13.5487 8.38531 13.5721 8.53836 13.5877C8.69422 13.6036 8.85079 13.6115 9.00746 13.6115C9.16575 13.6115 9.32231 13.6034 9.47651 13.5877C9.62956 13.5721 9.78172 13.5487 9.93241 13.5177L10.3728 13.404L10.7952 13.2489L11.1974 13.0546L11.577 12.8237L11.9317 12.5584L12.259 12.2612L12.5565 11.9342L12.8221 11.5799L13.0533 11.2008L13.2476 10.799L13.403 10.3769C13.448 10.2331 13.486 10.0863 13.5168 9.93693L13.5869 9.48137C13.6027 9.32723 13.6107 9.17085 13.6107 9.01273C13.6107 8.85461 13.6027 8.69822 13.5869 8.54409C13.5712 8.39119 13.5478 8.23918 13.5168 8.08865C13.486 7.93872 13.448 7.79254 13.403 7.64866L13.2476 7.22656L13.0533 6.8248L12.8221 6.4456L12.5565 6.09136L12.259 5.7644L11.9317 5.46714L11.577 5.20188L11.1974 4.97093L10.7952 4.77672L10.3728 4.6216L9.93241 4.50788L9.47651 4.43794C9.32066 4.42202 9.16411 4.41405 9.00746 4.41406V4.41412ZM9.00746 6.00141C9.11212 6.00141 9.2154 6.0066 9.31712 6.01686L9.61698 6.06224L9.90663 6.13605L10.184 6.2368L10.4477 6.36308L10.6957 6.5133L10.9275 6.68612L11.1412 6.87999L11.3352 7.09347L11.5082 7.32505L11.6586 7.57335L11.7849 7.83688C11.8228 7.92707 11.8565 8.01951 11.8858 8.11402C11.9151 8.20853 11.9397 8.30512 11.9596 8.4035C11.9795 8.50187 11.9942 8.60198 12.005 8.70364L12.0205 9.01307C12.0205 9.11762 12.0153 9.22084 12.005 9.32256C11.9947 9.42428 11.9796 9.52439 11.9596 9.62271C11.9396 9.72103 11.9149 9.81762 11.8858 9.91219L11.7849 10.1893L11.6586 10.4529L11.5082 10.7011L11.3352 10.9327L11.1412 11.1462L10.9275 11.3401L10.6957 11.5129L10.4477 11.6631L10.184 11.7894L9.90663 11.8902L9.61698 11.964L9.31712 12.0093C9.2142 12.0196 9.11084 12.0248 9.0074 12.0247C8.90395 12.0248 8.80056 12.0196 8.69763 12.0093L8.39777 11.964C8.29934 11.944 8.20269 11.9193 8.10806 11.8902L7.83069 11.7894L7.56699 11.6631L7.31903 11.5129L7.08722 11.3401L6.87351 11.1462L6.67947 10.9327L6.50647 10.7011L6.35608 10.4529L6.2298 10.1893L6.12888 9.91219L6.05507 9.62271L6.00969 9.32256C5.99937 9.21972 5.99421 9.11643 5.99424 9.01307C5.99421 8.90974 5.99937 8.80646 6.00969 8.70364C6.0199 8.60198 6.03506 8.50182 6.05507 8.4035C6.07488 8.30586 6.09954 8.20927 6.12894 8.11408L6.22985 7.83694L6.35614 7.57341L6.50653 7.32511L6.67953 7.09352L6.87357 6.88005L7.08727 6.68618L7.31909 6.51336L7.56705 6.36314L7.83075 6.23685C7.92151 6.19874 8.0141 6.16512 8.10818 6.13611L8.39788 6.0623C8.49632 6.04235 8.59654 6.02713 8.69774 6.01692C8.80068 6.00661 8.90407 6.00145 9.00752 6.00146L9.00746 6.00141Z" fill="#DCDCDC"/>
<path d="M13.7974 3.10596C13.7608 3.10596 13.7243 3.10781 13.6879 3.11149C13.6516 3.11517 13.6154 3.12067 13.5796 3.12799C13.5438 3.13529 13.5083 3.14439 13.4734 3.15526C13.4385 3.16613 13.4042 3.17876 13.3705 3.19309C13.3368 3.20743 13.3039 3.22347 13.2718 3.24112C13.2398 3.25875 13.2086 3.27797 13.1784 3.29873C13.1482 3.31951 13.1191 3.3418 13.0912 3.36551C13.0632 3.38919 13.0365 3.41427 13.011 3.44064C12.9855 3.46704 12.9614 3.49469 12.9387 3.52351C12.916 3.55233 12.8947 3.58228 12.875 3.61324C12.8552 3.64417 12.8371 3.67608 12.8205 3.70884C12.8039 3.74163 12.7889 3.77524 12.7757 3.80953C12.7624 3.84381 12.7509 3.87874 12.7411 3.91419C12.7314 3.94963 12.7234 3.98554 12.7171 4.02179C12.7109 4.05803 12.7065 4.09456 12.7039 4.13124C12.7021 4.15723 12.7012 4.18327 12.7012 4.20932C12.7012 4.24612 12.703 4.2829 12.7067 4.31952C12.7103 4.35612 12.7158 4.39251 12.723 4.42856C12.7303 4.46461 12.7393 4.50027 12.7501 4.53541C12.7609 4.57056 12.7735 4.60515 12.7877 4.63904C12.802 4.67294 12.8179 4.7061 12.8354 4.73839C12.8529 4.77069 12.872 4.80208 12.8927 4.83245C12.9133 4.8628 12.9354 4.89209 12.959 4.92021C12.9825 4.94836 13.0075 4.9753 13.0337 5.00094C13.0599 5.02657 13.0874 5.05086 13.116 5.07372C13.1446 5.09659 13.1744 5.11801 13.2052 5.1379C13.2359 5.15778 13.2677 5.1761 13.3003 5.19279C13.3328 5.20949 13.3662 5.22454 13.4002 5.23789C13.4343 5.25122 13.469 5.26282 13.5042 5.27266C13.5394 5.28248 13.5751 5.29053 13.6111 5.29676C13.6471 5.30303 13.6834 5.30747 13.7199 5.31009C13.7457 5.31193 13.7716 5.31285 13.7974 5.31285C13.834 5.31286 13.8705 5.31104 13.9069 5.30737C13.9433 5.3037 13.9794 5.29819 14.0152 5.29088C14.0511 5.28358 14.0865 5.27448 14.1214 5.26361C14.1563 5.25273 14.1907 5.24011 14.2243 5.22578C14.258 5.21145 14.2909 5.19544 14.323 5.1778C14.3551 5.16016 14.3863 5.14091 14.4164 5.12014C14.4466 5.09938 14.4757 5.07711 14.5037 5.05342C14.5316 5.02971 14.5584 5.00462 14.5838 4.97822C14.6093 4.95183 14.6334 4.92418 14.6561 4.89536C14.6788 4.86654 14.7001 4.83659 14.7198 4.80563C14.7396 4.77468 14.7578 4.74275 14.7743 4.70997C14.7909 4.67718 14.8059 4.64358 14.8191 4.60928C14.8324 4.575 14.8439 4.54007 14.8537 4.50462C14.8635 4.46918 14.8715 4.43327 14.8777 4.39702C14.8839 4.36078 14.8883 4.32425 14.8909 4.28757C14.8927 4.26158 14.8936 4.23554 14.8937 4.20949C14.8937 4.17271 14.8918 4.13595 14.8882 4.09935C14.8845 4.06275 14.8791 4.02636 14.8718 3.99031C14.8645 3.95426 14.8555 3.91859 14.8447 3.88345C14.8339 3.8483 14.8213 3.81372 14.8071 3.77983C14.7929 3.74593 14.7769 3.71277 14.7594 3.68047C14.7419 3.64818 14.7228 3.61679 14.7021 3.58642C14.6815 3.55605 14.6593 3.52674 14.6358 3.4986C14.6123 3.47045 14.5873 3.44351 14.5612 3.41787C14.5349 3.39224 14.5074 3.36795 14.4788 3.34509C14.4502 3.32224 14.4204 3.30084 14.3897 3.28097C14.3589 3.26109 14.3272 3.24276 14.2946 3.22607C14.262 3.20937 14.2286 3.19432 14.1946 3.18098C14.1605 3.16765 14.1258 3.15605 14.0906 3.14621C14.0554 3.13636 14.0197 3.1283 13.9837 3.12205C13.9477 3.1158 13.9114 3.11138 13.8749 3.10878C13.8491 3.10694 13.8233 3.10602 13.7974 3.10602V3.10596Z" fill="#DCDCDC"/>
<path d="M8.13485 0.016281C7.63421 0.0154737 7.18742 0.0175493 6.78607 0.0232005L5.71004 0.052033C5.39127 0.0658726 5.10963 0.0839204 4.85683 0.107275C4.73043 0.118923 4.61118 0.131955 4.49816 0.146314C4.3906 0.15987 4.28334 0.175655 4.17644 0.193658C4.07466 0.210957 3.97808 0.22964 3.88547 0.249938C3.79286 0.270236 3.7044 0.292149 3.61905 0.315677C3.53562 0.338683 3.45284 0.363989 3.37081 0.391564C3.29042 0.418667 3.212 0.447384 3.13455 0.478062C2.97966 0.539417 2.82858 0.608268 2.673 0.685424C2.55329 0.744819 2.44269 0.804963 2.33762 0.868625C2.23256 0.932288 2.13303 0.999525 2.03557 1.07276C1.93521 1.14855 1.83848 1.22902 1.74569 1.31392C1.6487 1.40226 1.54963 1.49942 1.4467 1.60801C1.31736 1.74369 1.20497 1.87021 1.10521 1.99436C1.05533 2.05641 1.00862 2.11776 0.964619 2.17947C0.921107 2.24027 0.879511 2.30243 0.83989 2.36584C0.800678 2.42869 0.763542 2.4927 0.72802 2.55856C0.691945 2.62554 0.65785 2.69358 0.62578 2.76257C0.560157 2.90351 0.498917 3.05528 0.437792 3.2247C0.392446 3.34995 0.35184 3.47686 0.316062 3.60517C0.27956 3.7363 0.247094 3.87349 0.218147 4.02186C0.189199 4.17023 0.163941 4.32979 0.14174 4.50625C0.117816 4.69967 0.0987042 4.89366 0.0844214 5.08803C0.0682753 5.30173 0.054897 5.53689 0.0439407 5.79864L0.0179915 6.66891L0.00403653 7.72978L0 9.01207L0.0118213 10.8768L0.0487269 12.2896L0.0771557 12.8414L0.112677 13.2987C0.124064 13.422 0.138311 13.5449 0.155407 13.6675C0.170977 13.7764 0.187699 13.8717 0.205691 13.9541C0.242197 14.1218 0.285365 14.2879 0.335091 14.4521C0.382704 14.6094 0.437153 14.7644 0.498283 14.9169C0.55837 15.0663 0.624108 15.2103 0.695613 15.3489C0.767117 15.4876 0.844388 15.6208 0.927426 15.7487C1.01046 15.8767 1.09927 15.9994 1.19407 16.1169C1.28876 16.2343 1.38948 16.3468 1.49583 16.4539C1.60234 16.5611 1.71467 16.6632 1.83305 16.7602C1.95284 16.8583 2.07735 16.9504 2.20615 17.0364C2.32569 17.1163 2.44396 17.1895 2.56309 17.2567C2.68223 17.3238 2.8024 17.3848 2.92592 17.4402C3.04944 17.4956 3.17607 17.5455 3.30835 17.5904C3.44064 17.6352 3.57846 17.6751 3.72412 17.7105C3.86978 17.746 4.02398 17.777 4.18717 17.8041C4.35036 17.8312 4.5248 17.8545 4.71117 17.8745C4.89754 17.8945 5.09637 17.911 5.31002 17.9249C5.52367 17.9387 5.75202 17.9498 5.99739 17.9587C6.37642 17.9724 6.95018 17.9804 7.61183 17.9835L9.7538 17.9791L11.7821 17.9507L12.5533 17.929L13.0558 17.9032C13.1636 17.8944 13.2691 17.8841 13.3709 17.8719C13.4728 17.8597 13.5732 17.8458 13.671 17.83C13.7688 17.8142 13.8644 17.7966 13.9584 17.777C14.0512 17.7576 14.1436 17.736 14.2354 17.7122C14.3263 17.6891 14.4159 17.6629 14.5046 17.6351C14.5933 17.6072 14.681 17.5771 14.7683 17.5448C14.856 17.5123 14.943 17.4777 15.029 17.441C15.1157 17.4041 15.2023 17.3646 15.2891 17.3227C15.4225 17.2585 15.5299 17.2049 15.6241 17.1526C15.7128 17.104 15.7982 17.0496 15.8798 16.9898C15.9603 16.9305 16.0404 16.863 16.1326 16.778C16.2249 16.693 16.3294 16.5906 16.4589 16.4611C16.5727 16.3474 16.6686 16.2486 16.7514 16.1587C16.8341 16.0688 16.9039 15.9879 16.965 15.9099C17.0232 15.8359 17.0775 15.7589 17.1276 15.6791C17.1764 15.6013 17.2214 15.5204 17.2673 15.4308C17.3362 15.2958 17.3976 15.1709 17.4525 15.0503C17.5059 14.9341 17.5546 14.8158 17.5987 14.6958C17.642 14.5767 17.6796 14.4555 17.7112 14.3328C17.7437 14.2065 17.7717 14.0732 17.7959 13.9269C17.8201 13.7807 17.8406 13.6215 17.8584 13.4438C17.8761 13.2661 17.8912 13.0697 17.9045 12.849L17.9397 12.1082L17.9699 11.1868L17.9915 10.1604L17.9998 9.08715L17.9805 6.97921L17.9547 6.03506L17.9196 5.22441L17.8757 4.5924C17.8598 4.41652 17.8426 4.27801 17.8244 4.18436C17.8043 4.08089 17.7817 3.97789 17.7568 3.87545C17.7326 3.77577 17.706 3.67669 17.677 3.5783C17.6487 3.48244 17.618 3.38732 17.5848 3.29303C17.5521 3.19991 17.5173 3.10874 17.481 3.01953C17.4447 2.93032 17.4054 2.84319 17.3644 2.7579C17.3235 2.67262 17.2806 2.58941 17.2355 2.5081C17.1905 2.42679 17.1436 2.3475 17.0945 2.27017C17.0454 2.19284 16.9943 2.11748 16.9411 2.04413C16.8882 1.97101 16.833 1.89957 16.7756 1.8299C16.7185 1.76062 16.6592 1.69315 16.5979 1.62761C16.5366 1.56215 16.4733 1.49865 16.408 1.4372C16.3427 1.37573 16.2754 1.31622 16.2059 1.25867C16.1362 1.20093 16.0648 1.14537 15.9916 1.09208C15.9177 1.03824 15.8422 0.986661 15.7651 0.937421C15.687 0.88748 15.6075 0.839866 15.5265 0.794642C15.4442 0.74866 15.3605 0.705047 15.2757 0.663857C15.1349 0.595409 15.0047 0.534689 14.8768 0.48083C14.7512 0.427378 14.623 0.379904 14.4929 0.33857C14.362 0.297339 14.2257 0.261991 14.0758 0.231486C13.9259 0.200982 13.7624 0.175551 13.5773 0.153927C13.3923 0.132303 13.1857 0.11483 12.9494 0.100299C12.713 0.0857673 12.4473 0.0743487 12.1438 0.0651223L11.1124 0.0420567L9.80702 0.0266602L8.13543 0.0163954L8.13485 0.016281ZM9.003 1.60218L11.4136 1.61591L12.3229 1.63344C12.5734 1.64047 12.7645 1.64872 12.8765 1.65823C13.0224 1.67051 13.1614 1.68591 13.2943 1.70436C13.4219 1.72198 13.5488 1.74388 13.6749 1.77004C13.796 1.79542 13.9115 1.82425 14.022 1.85677C14.1326 1.8893 14.2382 1.92574 14.3395 1.96605C14.4408 2.00636 14.5377 2.0507 14.6309 2.09925C14.7234 2.14744 14.8133 2.20047 14.9002 2.25812C14.9867 2.3155 15.0701 2.37731 15.1511 2.44392C15.232 2.51052 15.3105 2.58191 15.3871 2.65826C15.4681 2.73882 15.5427 2.82087 15.6115 2.90553C15.68 2.98965 15.7434 3.07783 15.8014 3.16957C15.86 3.26263 15.9128 3.35921 15.9595 3.45876C16.0072 3.56025 16.0501 3.66751 16.0886 3.78151C16.1272 3.89552 16.1615 4.01667 16.1919 4.14613C16.2237 4.28338 16.2503 4.42178 16.2718 4.56103C16.2949 4.70865 16.3146 4.86608 16.3313 5.03463C16.348 5.20319 16.3619 5.38293 16.3733 5.57524C16.3824 5.72949 16.3903 5.93305 16.3971 6.17346L16.414 6.99316L16.4269 9.00106L16.4122 11.007L16.3946 11.8244L16.3703 12.4189C16.3534 12.6972 16.3357 12.9312 16.3145 13.1349C16.3038 13.2367 16.2923 13.3309 16.2795 13.4193C16.2675 13.5029 16.2533 13.586 16.2368 13.6688C16.2218 13.7443 16.2044 13.8193 16.1847 13.8937C16.1657 13.9647 16.1444 14.035 16.1207 14.1046C16.0969 14.1745 16.0709 14.2436 16.0429 14.3119C16.0133 14.3841 15.9821 14.4556 15.9492 14.5263C15.92 14.5894 15.8892 14.6508 15.8567 14.7106C15.8246 14.7698 15.7904 14.8279 15.7543 14.8848C15.7185 14.9411 15.6811 14.9958 15.6419 15.0488C15.6029 15.1017 15.562 15.1531 15.5193 15.2029C15.4767 15.2526 15.4323 15.3007 15.3862 15.3471C15.3401 15.3935 15.2922 15.4383 15.2426 15.4816C15.193 15.5248 15.1416 15.5663 15.0884 15.6063C15.0352 15.6464 14.9801 15.6848 14.9232 15.7216C14.8663 15.7584 14.8076 15.7936 14.7469 15.8273C14.6863 15.861 14.6238 15.8932 14.5595 15.9238C14.4941 15.9549 14.4278 15.984 14.3607 16.0111C14.2912 16.0391 14.221 16.0652 14.1502 16.0892C14.006 16.1384 13.8539 16.1815 13.6939 16.2187C13.527 16.2572 13.3587 16.2887 13.1892 16.3131C13.124 16.3227 12.9743 16.3316 12.7598 16.3399L11.9423 16.3626L9.62474 16.3927L7.19901 16.3965L6.24638 16.3864L5.62781 16.3671L5.17168 16.3351C5.03006 16.3231 4.89835 16.3099 4.77495 16.2948C4.65154 16.2798 4.53662 16.263 4.4285 16.2441C4.32604 16.2263 4.2242 16.2052 4.12316 16.1806C4.03103 16.1582 3.93985 16.1321 3.84983 16.1023C3.76304 16.0735 3.68006 16.0418 3.59933 16.0069C3.5186 15.972 3.44018 15.9338 3.3625 15.892C3.28483 15.8503 3.20796 15.8049 3.13023 15.7555C3.07158 15.7183 3.0149 15.6806 2.96035 15.6406C2.9058 15.6006 2.85309 15.5608 2.80234 15.519C2.7516 15.4773 2.70287 15.4343 2.65588 15.39C2.60919 15.3459 2.56411 15.3002 2.52071 15.2529C2.47746 15.2057 2.43611 15.1571 2.39644 15.1069C2.35661 15.0564 2.31866 15.0044 2.28267 14.9512C2.24614 14.8971 2.21157 14.8417 2.17904 14.7851C2.14617 14.728 2.11492 14.6689 2.08522 14.6081C2.05503 14.546 2.02685 14.483 2.00074 14.4191C1.97422 14.354 1.94908 14.2869 1.92543 14.2176C1.87815 14.0789 1.83663 13.9313 1.80053 13.7739C1.76443 13.6164 1.73364 13.4492 1.70757 13.271C1.68151 13.0928 1.66052 12.9039 1.6438 12.7031C1.63146 12.5552 1.62165 12.3249 1.61416 12.0342L1.59847 11.0006L1.60424 8.36559L1.64962 5.84771L1.68422 4.96059L1.70383 4.66736C1.71063 4.58905 1.71767 4.53104 1.72487 4.49621C1.74863 4.38163 1.77256 4.27501 1.7973 4.17519C1.82041 4.08103 1.84612 3.98751 1.8744 3.89477C1.90127 3.80723 1.92958 3.72523 1.95986 3.64756C1.98905 3.57231 2.02159 3.49841 2.05737 3.42607C2.09232 3.35572 2.12986 3.28836 2.17062 3.2228C2.21139 3.15723 2.25539 3.09363 2.30337 3.03037C2.35135 2.96711 2.40301 2.90466 2.45924 2.84134C2.51546 2.77803 2.57618 2.71408 2.64204 2.64817C2.71878 2.57098 2.7987 2.49701 2.88158 2.42645C2.95983 2.35987 3.04144 2.29734 3.12608 2.23909C3.20929 2.18143 3.29463 2.1301 3.38349 2.08293C3.47235 2.03576 3.56473 1.99315 3.6619 1.9548C3.75906 1.91646 3.86113 1.88215 3.96925 1.85101C4.08284 1.81914 4.19769 1.79196 4.31351 1.76953C4.4353 1.74565 4.56464 1.72484 4.70275 1.70667C4.84086 1.68851 4.98779 1.67282 5.14487 1.65921C5.25443 1.64976 5.44323 1.64134 5.69182 1.63424L6.59658 1.61637L9.0034 1.60166L9.003 1.60218Z" fill="#DCDCDC"/>
</g>
<defs>
<clipPath id="clip0_602_929">
<rect width="18" height="18" fill="white"/>
</clipPath>
</defs>
</svg>
