<svg width="12" height="18" viewBox="0 0 12 18" fill="none" xmlns="http://www.w3.org/2000/svg">
<path d="M3.00098 18C4.65698 18 6.00098 16.656 6.00098 15V12H3.00098C1.34498 12 0.000976562 13.344 0.000976562 15C0.000976562 16.656 1.34498 18 3.00098 18Z" fill="#DCDCDC"/>
<path d="M0.000976562 9C0.000976562 7.344 1.34498 6 3.00098 6H6.00098V12H3.00098C1.34498 12 0.000976562 10.656 0.000976562 9Z" fill="#DCDCDC"/>
<path d="M0.000976562 3C0.000976562 1.344 1.34498 0 3.00098 0H6.00098V6H3.00098C1.34498 6 0.000976562 4.656 0.000976562 3Z" fill="#DCDCDC"/>
<path d="M6.00098 0H9.00098C10.657 0 12.001 1.344 12.001 3C12.001 4.656 10.657 6 9.00098 6H6.00098V0Z" fill="#DCDCDC"/>
<path d="M12.001 9C12.001 10.656 10.657 12 9.00098 12C7.34498 12 6.00098 10.656 6.00098 9C6.00098 7.344 7.34498 6 9.00098 6C10.657 6 12.001 7.344 12.001 9Z" fill="#DCDCDC"/>
</svg>
