<svg width="18" height="18" viewBox="0 0 18 18" fill="none" xmlns="http://www.w3.org/2000/svg">
<g clip-path="url(#clip0_602_940)">
<path d="M5.83437 13.9711C5.83437 14.0414 5.75352 14.0977 5.65156 14.0977C5.53555 14.1082 5.45469 14.052 5.45469 13.9711C5.45469 13.9008 5.53555 13.8445 5.6375 13.8445C5.74297 13.834 5.83437 13.8902 5.83437 13.9711ZM4.74102 13.8129C4.71641 13.8832 4.78672 13.9641 4.89219 13.9852C4.98359 14.0203 5.08906 13.9852 5.11016 13.9148C5.13125 13.8445 5.06445 13.7637 4.95898 13.732C4.86758 13.7074 4.76562 13.7426 4.74102 13.8129ZM6.29492 13.7531C6.19297 13.7777 6.12266 13.8445 6.1332 13.9254C6.14375 13.9957 6.23516 14.0414 6.34063 14.0168C6.44258 13.9922 6.51289 13.9254 6.50234 13.8551C6.4918 13.7883 6.39687 13.7426 6.29492 13.7531ZM8.6082 0.28125C3.73203 0.28125 0.00195312 3.9832 0.00195312 8.85938C0.00195312 12.7582 2.45586 16.0945 5.96094 17.2688C6.41094 17.3496 6.56914 17.0719 6.56914 16.8434C6.56914 16.6254 6.55859 15.423 6.55859 14.6848C6.55859 14.6848 4.09766 15.2121 3.58086 13.6371C3.58086 13.6371 3.18008 12.6141 2.60352 12.3504C2.60352 12.3504 1.79844 11.7984 2.65977 11.809C2.65977 11.809 3.53516 11.8793 4.0168 12.716C4.78672 14.073 6.07695 13.6828 6.57969 13.4508C6.66055 12.8883 6.88906 12.498 7.14219 12.266C5.17695 12.048 3.19414 11.7633 3.19414 8.38125C3.19414 7.41445 3.46133 6.9293 4.02383 6.31055C3.93242 6.08203 3.63359 5.13984 4.11523 3.92344C4.85 3.69492 6.54102 4.87266 6.54102 4.87266C7.24414 4.67578 8 4.57383 8.74883 4.57383C9.49766 4.57383 10.2535 4.67578 10.9566 4.87266C10.9566 4.87266 12.6477 3.69141 13.3824 3.92344C13.8641 5.14336 13.5652 6.08203 13.4738 6.31055C14.0363 6.93281 14.3809 7.41797 14.3809 8.38125C14.3809 11.7738 12.3102 12.0445 10.3449 12.266C10.6684 12.5437 10.9426 13.0711 10.9426 13.8973C10.9426 15.082 10.932 16.548 10.932 16.8363C10.932 17.0648 11.0938 17.3426 11.5402 17.2617C15.0559 16.0945 17.4395 12.7582 17.4395 8.85938C17.4395 3.9832 13.4844 0.28125 8.6082 0.28125ZM3.41914 12.4066C3.37344 12.4418 3.38398 12.5227 3.44375 12.5895C3.5 12.6457 3.58086 12.6703 3.62656 12.6246C3.67227 12.5895 3.66172 12.5086 3.60195 12.4418C3.5457 12.3855 3.46484 12.3609 3.41914 12.4066ZM3.03945 12.1219C3.01484 12.1676 3.05 12.2238 3.12031 12.259C3.17656 12.2941 3.24688 12.2836 3.27148 12.2344C3.29609 12.1887 3.26094 12.1324 3.19062 12.0973C3.12031 12.0762 3.06406 12.0867 3.03945 12.1219ZM4.17852 13.3734C4.12227 13.4191 4.14336 13.5246 4.22422 13.5914C4.30508 13.6723 4.40703 13.6828 4.45273 13.6266C4.49844 13.5809 4.47734 13.4754 4.40703 13.4086C4.32969 13.3277 4.22422 13.3172 4.17852 13.3734ZM3.77773 12.8566C3.72148 12.8918 3.72148 12.9832 3.77773 13.0641C3.83398 13.1449 3.92891 13.1801 3.97461 13.1449C4.03086 13.0992 4.03086 13.0078 3.97461 12.927C3.92539 12.8461 3.83398 12.8109 3.77773 12.8566Z" fill="#DCDCDC"/>
</g>
<defs>
<clipPath id="clip0_602_940">
<rect width="17.4375" height="18" fill="white" transform="translate(0.00195312)"/>
</clipPath>
</defs>
</svg>
